<?xml version="1.0" encoding="iso-8859-1"?>
<!-- Generator: Adobe Illustrator 18.1.1, SVG Export Plug-In . SVG Version: 6.00 Build 0)  -->
<svg version="1.1" id="Capa_1" xmlns="http://www.w3.org/2000/svg" xmlns:xlink="http://www.w3.org/1999/xlink" x="0px" y="0px"
	 viewBox="0 0 478.165 478.165" style="enable-background:new 0 0 478.165 478.165;" xml:space="preserve">
<g>
	<path id="MobileMe_3_" d="M478.165,306.434c0,52.259-42.019,94.697-93.86,94.697H93.86C42.039,401.13,0,358.693,0,306.434
		c0-46.88,34.288-86.209,79.096-93.302c-0.598-3.287-0.877-6.734-0.877-10.241c0-33.133,26.618-59.83,59.512-59.83
		c14.684,0,28.032,5.24,38.353,14.106c18.569-41.839,42.198-80.132,108.703-80.132c80.431,0,118.665,62.62,118.665,128.646
		c0,2.809-0.1,5.579-0.379,8.169C445.948,222.695,478.165,260.928,478.165,306.434z"/>
</g>
<g>
</g>
<g>
</g>
<g>
</g>
<g>
</g>
<g>
</g>
<g>
</g>
<g>
</g>
<g>
</g>
<g>
</g>
<g>
</g>
<g>
</g>
<g>
</g>
<g>
</g>
<g>
</g>
<g>
</g>
</svg>
